PathFileType	3	(X/Y/Z)	dance_move_1__view2_aligned.trc
DataRate	CameraRate	NumFrames	NumMarkers	Units	OrigDataRate	OrigDataStartFrame	OrigNumFrames
100.0	100.0	15	19	mm	100.0	22	890
Frame#	Time	pelvis			neck			head			hip_left			hip_right			knee_left			knee_right			ankle_left			ankle_right			heel_left			heel_right			toe_left			toe_right			shoulder_left			shoulder_right			elbow_left			elbow_right			wrist_left			wrist_right			
		X1	Y1	Z1	X2	Y2	Z2	X3	Y3	Z3	X4	Y4	Z4	X5	Y5	Z5	X6	Y6	Z6	X7	Y7	Z7	X8	Y8	Z8	X9	Y9	Z9	X10	Y10	Z10	X11	Y11	Z11	X12	Y12	Z12	X13	Y13	Z13	X14	Y14	Z14	X15	Y15	Z15	X16	Y16	Z16	X17	Y17	Z17	X18	Y18	Z18	X19	Y19	Z19	
22	0.21000	100.879015	939.961588	-111.119390	96.327645	1516.616740	-141.462477	84.771400	1662.515962	-248.354338	24.152952	935.654448	-107.887162	177.605557	944.268713	-114.351550	-32.928722	511.943180	-74.817023	208.818786	516.753757	-107.963112	-61.919003	125.211850	40.904362	221.219923	125.218125	-5.904904	-57.870456	82.230966	80.527840	215.161005	79.808779	32.571685	-92.191161	48.090266	-137.560361	249.931174	61.253424	-187.384605	-71.009034	1480.758513	-90.594478	274.499241	1444.004757	-126.445832	-265.012868	1243.390600	-144.894658	347.942962	1164.261810	-200.810374	-437.684678	1309.211332	-376.906325	234.771796	1257.812378	-402.626671
23	0.22000	100.772588	940.323687	-111.160433	95.722189	1516.944762	-140.465889	83.838800	1662.821419	-247.364449	23.995483	935.989651	-107.813002	177.550123	944.657708	-114.507803	-32.293322	512.079876	-74.549192	208.691753	517.011973	-107.963783	-60.683975	125.147002	41.076445	221.236637	125.312662	-5.995124	-56.578220	82.184388	80.722361	215.221936	79.909257	32.505626	-90.888303	47.740598	-137.299839	249.730656	61.142041	-187.472674	-71.871836	1481.223049	-90.337433	274.145530	1444.395080	-126.301597	-261.889373	1243.055845	-147.893804	345.868072	1164.305786	-201.727283	-423.555229	1310.816227	-380.451283	229.240362	1258.705346	-402.882557
24	0.23000	100.666160	940.685785	-111.201475	95.116733	1517.272784	-139.469300	82.906201	1663.126875	-246.374560	23.838014	936.324854	-107.738842	177.494689	945.046704	-114.664056	-31.657923	512.216571	-74.281361	208.564721	517.270189	-107.964454	-59.448948	125.082155	41.248527	221.253351	125.407199	-6.085344	-55.285985	82.137810	80.916882	215.282867	80.009735	32.439566	-89.585445	47.390930	-137.039316	249.530138	61.030658	-187.560744	-72.734637	1481.687585	-90.080387	273.791818	1444.785403	-126.157361	-258.765879	1242.721090	-150.892950	343.793181	1164.349761	-202.644192	-409.425779	1312.421121	-383.996241	223.708928	1259.598314	-403.138443
25	0.24000	100.559733	941.047883	-111.242518	94.511277	1517.600806	-138.472712	81.973602	1663.432332	-245.384670	23.680545	936.660056	-107.664681	177.439255	945.435700	-114.820309	-31.022524	512.353266	-74.013530	208.437688	517.528405	-107.965125	-58.213920	125.017308	41.420609	221.270065	125.501736	-6.175564	-53.993749	82.091233	81.111403	215.343798	80.110213	32.373507	-88.282587	47.041262	-136.778793	249.329620	60.919275	-187.648813	-73.597439	1482.152121	-89.823342	273.438107	1445.175725	-126.013125	-255.642384	1242.386335	-153.892096	341.718291	1164.393737	-203.561101	-395.296330	1314.026016	-387.541199	218.177493	1260.491283	-403.394329
26	0.25000	100.453305	941.409982	-111.283560	93.905821	1517.928828	-137.476124	81.041002	1663.737788	-244.394781	23.523076	936.995259	-107.590521	177.383821	945.824695	-114.976562	-30.387125	512.489962	-73.745699	208.310656	517.786622	-107.965796	-56.978893	124.952461	41.592692	221.286779	125.596273	-6.265783	-52.701514	82.044655	81.305924	215.404728	80.210691	32.307448	-86.979729	46.691594	-136.518271	249.129102	60.807892	-187.736883	-74.460240	1482.616657	-89.566296	273.084395	1445.566048	-125.868889	-252.518890	1242.051580	-156.891241	339.643400	1164.437713	-204.478010	-381.166881	1315.630910	-391.086157	212.646059	1261.384251	-403.650214
27	0.26000	100.346878	941.772080	-111.324603	93.300366	1518.256850	-136.479535	80.108403	1664.043245	-243.404892	23.365607	937.330462	-107.516360	177.328388	946.213691	-115.132815	-29.751725	512.626657	-73.477868	208.183623	518.044838	-107.966468	-55.743866	124.887613	41.764774	221.303494	125.690809	-6.356003	-51.409278	81.998077	81.500445	215.465659	80.311169	32.241389	-85.676872	46.341926	-136.257748	248.928585	60.696509	-187.824952	-75.323042	1483.081193	-89.309251	272.730684	1445.956371	-125.724653	-249.395396	1241.716825	-159.890387	337.568509	1164.481689	-205.394919	-367.037432	1317.235805	-394.631115	207.114625	1262.277219	-403.906100
28	0.27000	100.240450	942.134179	-111.365645	92.694910	1518.584872	-135.482947	79.175803	1664.348701	-242.415003	23.208138	937.665665	-107.442200	177.272954	946.602686	-115.289068	-29.116326	512.763353	-73.210037	208.056591	518.303054	-107.967139	-54.508838	124.822766	41.936856	221.320208	125.785346	-6.446223	-50.117043	81.951499	81.694966	215.526590	80.411647	32.175329	-84.374014	45.992258	-135.997225	248.728067	60.585127	-187.913022	-76.185843	1483.545729	-89.052206	272.376972	1446.346693	-125.580417	-246.271901	1241.382069	-162.889533	335.493619	1164.525665	-206.311828	-352.907983	1318.840699	-398.176073	201.583190	1263.170188	-404.161986
29	0.28000	100.134023	942.496277	-111.406688	92.089454	1518.912894	-134.486358	78.243204	1664.654158	-241.425114	23.050669	938.000867	-107.368039	177.217520	946.991682	-115.445321	-28.480927	512.900048	-72.942206	207.929559	518.561270	-107.967810	-53.273811	124.757919	42.108939	221.336922	125.879883	-6.536443	-48.824807	81.904921	81.889487	215.587521	80.512125	32.109270	-83.071156	45.642590	-135.736703	248.527549	60.473744	-188.001091	-77.048645	1484.010264	-88.795160	272.023261	1446.737016	-125.436181	-243.148407	1241.047314	-165.888679	333.418728	1164.569640	-207.228737	-338.778534	1320.445594	-401.721031	196.051756	1264.063156	-404.417872
30	0.29000	100.027595	942.858375	-111.447730	91.483998	1519.240916	-133.489770	77.310604	1664.959614	-240.435225	22.893200	938.336070	-107.293879	177.162086	947.380678	-115.601574	-27.845527	513.036743	-72.674375	207.802526	518.819486	-107.968481	-52.038784	124.693071	42.281021	221.353636	125.974420	-6.626662	-47.532572	81.858343	82.084008	215.648451	80.612603	32.043211	-81.768298	45.292922	-135.476180	248.327031	60.362361	-188.089161	-77.911446	1484.474800	-88.538115	271.669549	1447.127338	-125.291945	-240.024912	1240.712559	-168.887825	331.343838	1164.613616	-208.145646	-324.649084	1322.050488	-405.265989	190.520321	1264.956124	-404.673758
31	0.30000	99.921167	943.220474	-111.488773	90.878542	1519.568939	-132.493181	76.378005	1665.265071	-239.445336	22.735731	938.671273	-107.219718	177.106652	947.769673	-115.757827	-27.210128	513.173439	-72.406544	207.675494	519.077703	-107.969152	-50.803756	124.628224	42.453104	221.370350	126.068957	-6.716882	-46.240336	81.811765	82.278529	215.709382	80.713081	31.977152	-80.465440	44.943253	-135.215657	248.126513	60.250978	-188.177230	-78.774248	1484.939336	-88.281069	271.315838	1447.517661	-125.147709	-236.901418	1240.377804	-171.886970	329.268947	1164.657592	-209.062555	-310.519635	1323.655383	-408.810947	184.988887	1265.849093	-404.929643
32	0.31000	99.814740	943.582572	-111.529815	90.273087	1519.896961	-131.496593	75.445406	1665.570527	-238.455446	22.578262	939.006475	-107.145558	177.051219	948.158669	-115.914080	-26.574729	513.310134	-72.138713	207.548461	519.335919	-107.969823	-49.568729	124.563377	42.625186	221.387064	126.163494	-6.807102	-44.948101	81.765187	82.473050	215.770313	80.813559	31.911092	-79.162583	44.593585	-134.955135	247.925995	60.139595	-188.265300	-79.637049	1485.403872	-88.024024	270.962126	1447.907984	-125.003473	-233.777924	1240.043049	-174.886116	327.194057	1164.701568	-209.979464	-296.390186	1325.260277	-412.355905	179.457453	1266.742061	-405.185529
33	0.32000	99.600806	943.865800	-111.373453	89.704880	1520.113899	-130.870905	74.646889	1665.569572	-237.986780	22.334278	939.272010	-106.892424	176.867335	948.459584	-115.854489	-26.244473	513.400594	-71.901467	207.277134	519.518843	-107.963497	-48.790091	124.472155	42.746045	221.215251	126.194686	-6.919312	-44.127344	81.686425	82.613583	215.642097	80.847976	31.817160	-78.315930	44.258069	-134.758327	247.514279	59.976794	-188.373708	-80.422011	1485.712956	-87.989839	270.563398	1448.235273	-124.901346	-231.284178	1239.608216	-176.865521	325.709831	1164.829383	-210.154562	-285.501870	1325.209626	-414.355217	175.721628	1266.416362	-404.711300
34	0.33000	99.386872	944.149028	-111.217091	89.136673	1520.330837	-130.245217	73.848371	1665.568616	-237.518113	22.090293	939.537544	-106.639290	176.683451	948.760500	-115.794897	-25.914217	513.491055	-71.664221	207.005806	519.701767	-107.957171	-48.011452	124.380933	42.866905	221.043438	126.225879	-7.031522	-43.306587	81.607664	82.754116	215.513881	80.882392	31.723227	-77.469278	43.922552	-134.561519	247.102563	59.813993	-188.482115	-81.206972	1486.022039	-87.955653	270.164670	1448.562563	-124.799220	-228.790433	1239.173383	-178.844926	324.225605	1164.957198	-210.329660	-274.613554	1325.158976	-416.354529	171.985802	1266.090663	-404.237071
35	0.34000	99.172938	944.432256	-111.060728	88.568467	1520.547775	-129.619529	73.049854	1665.567661	-237.049446	21.846309	939.803079	-106.386156	176.499567	949.061416	-115.735306	-25.583961	513.581515	-71.426975	206.734479	519.884692	-107.950845	-47.232814	124.289711	42.987764	220.871624	126.257071	-7.143731	-42.485830	81.528902	82.894649	215.385665	80.916809	31.629294	-76.622626	43.587036	-134.364711	246.690846	59.651192	-188.590523	-81.991934	1486.331122	-87.921468	269.765942	1448.889853	-124.697094	-226.296687	1238.738550	-180.824331	322.741379	1165.085013	-210.504758	-263.725239	1325.108325	-418.353841	168.249977	1265.764964	-403.762842
36	0.35000	98.959004	944.715484	-110.904366	88.000260	1520.764713	-128.993842	72.251337	1665.566706	-236.580779	21.602324	940.068613	-106.133022	176.315683	949.362331	-115.675714	-25.253705	513.671975	-71.189728	206.463151	520.067616	-107.944519	-46.454176	124.198489	43.108624	220.699811	126.288263	-7.255941	-41.665073	81.450140	83.035182	215.257449	80.951226	31.535361	-75.775974	43.251519	-134.167904	246.279130	59.488391	-188.698931	-82.776895	1486.640205	-87.887283	269.367214	1449.217143	-124.594967	-223.802942	1238.303717	-182.803736	321.257154	1165.212829	-210.679856	-252.836923	1325.057674	-420.353153	164.514152	1265.439264	-403.288613
